<?xml version="1.0" encoding="utf-8" standalone="no"?>
<!DOCTYPE svg PUBLIC "-//W3C//DTD SVG 1.1//EN"
  "http://www.w3.org/Graphics/SVG/1.1/DTD/svg11.dtd">
<!-- Created with matplotlib (https://matplotlib.org/) -->
<svg height="720pt" version="1.1" viewBox="0 0 1296 720" width="1296pt" xmlns="http://www.w3.org/2000/svg" xmlns:xlink="http://www.w3.org/1999/xlink">
 <metadata>
  <rdf:RDF xmlns:cc="http://creativecommons.org/ns#" xmlns:dc="http://purl.org/dc/elements/1.1/" xmlns:rdf="http://www.w3.org/1999/02/22-rdf-syntax-ns#">
   <cc:Work>
    <dc:type rdf:resource="http://purl.org/dc/dcmitype/StillImage"/>
    <dc:date>2022-05-10T19:52:13.534678</dc:date>
    <dc:format>image/svg+xml</dc:format>
    <dc:creator>
     <cc:Agent>
      <dc:title>Matplotlib v3.3.4, https://matplotlib.org/</dc:title>
     </cc:Agent>
    </dc:creator>
   </cc:Work>
  </rdf:RDF>
 </metadata>
 <defs>
  <style type="text/css">*{stroke-linecap:butt;stroke-linejoin:round;}</style>
 </defs>
 <g id="figure_1">
  <g id="patch_1">
   <path d="M 0 720 
L 1296 720 
L 1296 0 
L 0 0 
z
" style="fill:#ffffff;"/>
  </g>
  <g id="axes_1">
   <g id="patch_2">
    <path d="M 162 640.8 
L 1166.4 640.8 
L 1166.4 86.4 
L 162 86.4 
z
" style="fill:#ffffff;"/>
   </g>
   <g id="patch_3">
    <path clip-path="url(#p51b4be7dcf)" d="M 162 461.314286 
L 824.967015 461.314286 
L 824.967015 420.171429 
L 162 420.171429 
z
" style="fill:#aec7e8;stroke:#000000;stroke-linejoin:miter;"/>
   </g>
   <g id="patch_4">
    <path clip-path="url(#p51b4be7dcf)" d="M 597.668774 512.742857 
L 1023.861855 512.742857 
L 1023.861855 471.6 
L 597.668774 471.6 
z
" style="fill:#2ca02c;stroke:#000000;stroke-linejoin:miter;"/>
   </g>
   <g id="patch_5">
    <path clip-path="url(#p51b4be7dcf)" d="M 493.485875 307.028571 
L 1023.859487 307.028571 
L 1023.859487 265.885714 
L 493.485875 265.885714 
z
" style="fill:#ffbb78;stroke:#000000;stroke-linejoin:miter;"/>
   </g>
   <g id="patch_6">
    <path clip-path="url(#p51b4be7dcf)" d="M 162 307.028571 
L 493.483508 307.028571 
L 493.483508 265.885714 
L 162 265.885714 
z
" style="fill:#d62728;stroke:#000000;stroke-linejoin:miter;"/>
   </g>
   <g id="patch_7">
    <path clip-path="url(#p51b4be7dcf)" d="M 162 512.742857 
L 597.664038 512.742857 
L 597.664038 471.6 
L 162 471.6 
z
" style="fill:#ff7f0e;stroke:#000000;stroke-linejoin:miter;"/>
   </g>
   <g id="patch_8">
    <path clip-path="url(#p51b4be7dcf)" d="M 824.967015 409.885714 
L 900.734674 409.885714 
L 900.734674 368.742857 
L 824.967015 368.742857 
z
" style="fill:#aec7e8;stroke:#000000;stroke-linejoin:miter;"/>
   </g>
   <g id="patch_9">
    <path clip-path="url(#p51b4be7dcf)" d="M 162 615.6 
L 824.967015 615.6 
L 824.967015 574.457143 
L 162 574.457143 
z
" style="fill:#ffbb78;stroke:#000000;stroke-linejoin:miter;"/>
   </g>
   <g id="patch_10">
    <path clip-path="url(#p51b4be7dcf)" d="M 230.667992 204.171429 
L 874.693093 204.171429 
L 874.693093 163.028571 
L 230.667992 163.028571 
z
" style="fill:#aec7e8;stroke:#000000;stroke-linejoin:miter;"/>
   </g>
   <g id="patch_11">
    <path clip-path="url(#p51b4be7dcf)" d="M 493.483508 409.885714 
L 540.838294 409.885714 
L 540.838294 368.742857 
L 493.483508 368.742857 
z
" style="fill:#d62728;stroke:#000000;stroke-linejoin:miter;"/>
   </g>
   <g id="patch_12">
    <path clip-path="url(#p51b4be7dcf)" d="M 824.970567 461.314286 
L 1012.495522 461.314286 
L 1012.495522 420.171429 
L 824.970567 420.171429 
z
" style="fill:#1f77b4;stroke:#000000;stroke-linejoin:miter;"/>
   </g>
   <g id="patch_13">
    <path clip-path="url(#p51b4be7dcf)" d="M 824.967015 152.742857 
L 919.676589 152.742857 
L 919.676589 111.6 
L 824.967015 111.6 
z
" style="fill:#ffbb78;stroke:#000000;stroke-linejoin:miter;"/>
   </g>
   <g id="patch_14">
    <path clip-path="url(#p51b4be7dcf)" d="M 919.678956 152.742857 
L 995.446615 152.742857 
L 995.446615 111.6 
L 919.678956 111.6 
z
" style="fill:#aec7e8;stroke:#000000;stroke-linejoin:miter;"/>
   </g>
   <g id="patch_15">
    <path clip-path="url(#p51b4be7dcf)" d="M 597.664038 409.885714 
L 692.373612 409.885714 
L 692.373612 368.742857 
L 597.664038 368.742857 
z
" style="fill:#ff7f0e;stroke:#000000;stroke-linejoin:miter;"/>
   </g>
   <g id="patch_16">
    <path clip-path="url(#p51b4be7dcf)" d="M 900.734674 255.6 
L 938.618503 255.6 
L 938.618503 214.457143 
L 900.734674 214.457143 
z
" style="fill:#aec7e8;stroke:#000000;stroke-linejoin:miter;"/>
   </g>
   <g id="patch_17">
    <path clip-path="url(#p51b4be7dcf)" d="M 162 204.171429 
L 230.664441 204.171429 
L 230.664441 163.028571 
L 162 163.028571 
z
" style="fill:#98df8a;stroke:#000000;stroke-linejoin:miter;"/>
   </g>
   <g id="patch_18">
    <path clip-path="url(#p51b4be7dcf)" d="M 1023.861855 564.171429 
L 1118.571429 564.171429 
L 1118.571429 523.028571 
L 1023.861855 523.028571 
z
" style="fill:#2ca02c;stroke:#000000;stroke-linejoin:miter;"/>
   </g>
   <g id="patch_19">
    <path clip-path="url(#p51b4be7dcf)" d="M 230.664441 358.457143 
L 240.135398 358.457143 
L 240.135398 317.314286 
L 230.664441 317.314286 
z
" style="fill:#98df8a;stroke:#000000;stroke-linejoin:miter;"/>
   </g>
   <g id="patch_20">
    <path clip-path="url(#p51b4be7dcf)" d="M 1023.859487 409.885714 
L 1099.627146 409.885714 
L 1099.627146 368.742857 
L 1023.859487 368.742857 
z
" style="fill:#ffbb78;stroke:#000000;stroke-linejoin:miter;"/>
   </g>
   <g id="patch_21">
    <path clip-path="url(#p51b4be7dcf)" d="M 1012.495522 255.6 
L 1023.860671 255.6 
L 1023.860671 214.457143 
L 1012.495522 214.457143 
z
" style="fill:#1f77b4;stroke:#000000;stroke-linejoin:miter;"/>
   </g>
   <g id="patch_22">
    <path clip-path="url(#p51b4be7dcf)" d="M 1023.864223 255.6 
L 1061.748052 255.6 
L 1061.748052 214.457143 
L 1023.864223 214.457143 
z
" style="fill:#aec7e8;stroke:#000000;stroke-linejoin:miter;"/>
   </g>
   <g id="matplotlib.axis_1">
    <g id="xtick_1">
     <g id="line2d_1">
      <defs>
       <path d="M 0 0 
L 0 3.5 
" id="m9245b4c8ec" style="stroke:#000000;stroke-width:0.8;"/>
      </defs>
      <g>
       <use style="stroke:#000000;stroke-width:0.8;" x="162" xlink:href="#m9245b4c8ec" y="640.8"/>
      </g>
     </g>
     <g id="text_1">
      <!-- 0.0 -->
      <g transform="translate(154.5 654.675)scale(0.1 -0.1)">
       <defs>
        <path d="M 3.125 29.296875 
Q 3.90625 50 6.4375 56.046875 
Q 8.984375 62.109375 13.671875 66.015625 
Q 18.359375 69.921875 25.1875 69.921875 
Q 32.03125 69.921875 37.109375 64.25 
Q 42.1875 58.59375 43.75 50 
Q 45.3125 41.40625 44.71875 30.265625 
Q 44.140625 19.140625 40.8125 12.109375 
Q 37.5 5.078125 30.859375 2.34375 
Q 24.21875 -0.390625 17.578125 2.921875 
Q 10.9375 6.25 8.203125 11.71875 
Q 5.46875 17.1875 4.296875 23.234375 
Q 3.125 29.296875 3.90625 50 
z
M 12.890625 52.734375 
Q 10.546875 31.25 12.5 22.84375 
Q 14.453125 14.453125 18.9375 10.9375 
Q 23.4375 7.421875 28.125 9.5625 
Q 32.8125 11.71875 34.953125 18.15625 
Q 37.109375 24.609375 37.109375 32.21875 
Q 37.109375 39.84375 36.515625 46.09375 
Q 35.9375 52.34375 33 57.421875 
Q 30.078125 62.5 25.1875 62.6875 
Q 20.3125 62.890625 16.59375 57.8125 
Q 12.890625 52.734375 10.546875 31.25 
z
" id="SimHei-48"/>
        <path d="M 16.796875 1.953125 
L 7.8125 1.953125 
L 7.8125 10.546875 
L 16.796875 10.546875 
z
" id="SimHei-46"/>
       </defs>
       <use xlink:href="#SimHei-48"/>
       <use x="50" xlink:href="#SimHei-46"/>
       <use x="100" xlink:href="#SimHei-48"/>
      </g>
     </g>
    </g>
    <g id="xtick_2">
     <g id="line2d_2">
      <g>
       <use style="stroke:#000000;stroke-width:0.8;" x="280.386967" xlink:href="#m9245b4c8ec" y="640.8"/>
      </g>
     </g>
     <g id="text_2">
      <!-- 0.5 -->
      <g transform="translate(272.886967 654.675)scale(0.1 -0.1)">
       <defs>
        <path d="M 8.59375 20.703125 
Q 11.328125 10.15625 17.96875 8.984375 
Q 24.609375 7.8125 28.703125 10.34375 
Q 32.8125 12.890625 34.5625 16.984375 
Q 36.328125 21.09375 36.125 26.171875 
Q 35.9375 31.25 33.390625 34.765625 
Q 30.859375 38.28125 26.953125 39.453125 
Q 23.046875 40.625 18.15625 39.453125 
Q 13.28125 38.28125 10.15625 33.984375 
L 3.515625 34.765625 
Q 4.296875 37.109375 10.9375 68.359375 
L 41.796875 68.359375 
L 41.796875 61.328125 
L 16.796875 61.328125 
Q 14.84375 50.78125 12.890625 44.53125 
Q 18.75 47.265625 23.828125 47.0625 
Q 28.90625 46.875 33.59375 44.71875 
Q 38.28125 42.578125 40.421875 38.859375 
Q 42.578125 35.15625 43.546875 31.4375 
Q 44.53125 27.734375 44.328125 23.4375 
Q 44.140625 19.140625 42.578125 14.640625 
Q 41.015625 10.15625 37.890625 7.21875 
Q 34.765625 4.296875 30.265625 2.53125 
Q 25.78125 0.78125 19.921875 1.171875 
Q 14.0625 1.5625 8.78125 5.46875 
Q 3.515625 9.375 1.5625 18.75 
z
" id="SimHei-53"/>
       </defs>
       <use xlink:href="#SimHei-48"/>
       <use x="50" xlink:href="#SimHei-46"/>
       <use x="100" xlink:href="#SimHei-53"/>
      </g>
     </g>
    </g>
    <g id="xtick_3">
     <g id="line2d_3">
      <g>
       <use style="stroke:#000000;stroke-width:0.8;" x="398.773934" xlink:href="#m9245b4c8ec" y="640.8"/>
      </g>
     </g>
     <g id="text_3">
      <!-- 1.0 -->
      <g transform="translate(391.273934 654.675)scale(0.1 -0.1)">
       <defs>
        <path d="M 21.875 56.25 
Q 16.796875 51.171875 8.984375 46.484375 
L 8.984375 53.90625 
Q 18.75 60.546875 25 69.53125 
L 29.6875 69.53125 
L 29.6875 2.34375 
L 21.875 2.34375 
z
" id="SimHei-49"/>
       </defs>
       <use xlink:href="#SimHei-49"/>
       <use x="50" xlink:href="#SimHei-46"/>
       <use x="100" xlink:href="#SimHei-48"/>
      </g>
     </g>
    </g>
    <g id="xtick_4">
     <g id="line2d_4">
      <g>
       <use style="stroke:#000000;stroke-width:0.8;" x="517.160901" xlink:href="#m9245b4c8ec" y="640.8"/>
      </g>
     </g>
     <g id="text_4">
      <!-- 1.5 -->
      <g transform="translate(509.660901 654.675)scale(0.1 -0.1)">
       <use xlink:href="#SimHei-49"/>
       <use x="50" xlink:href="#SimHei-46"/>
       <use x="100" xlink:href="#SimHei-53"/>
      </g>
     </g>
    </g>
    <g id="xtick_5">
     <g id="line2d_5">
      <g>
       <use style="stroke:#000000;stroke-width:0.8;" x="635.547868" xlink:href="#m9245b4c8ec" y="640.8"/>
      </g>
     </g>
     <g id="text_5">
      <!-- 2.0 -->
      <g transform="translate(628.047868 654.675)scale(0.1 -0.1)">
       <defs>
        <path d="M 4.6875 3.90625 
Q 5.078125 9.765625 10.15625 14.453125 
Q 15.234375 19.140625 23.046875 29.09375 
Q 30.859375 39.0625 33.203125 44.53125 
Q 35.546875 50 34.953125 53.90625 
Q 34.375 57.8125 31.25 60.34375 
Q 28.125 62.890625 24.015625 62.5 
Q 19.921875 62.109375 16.203125 59.375 
Q 12.5 56.640625 10.546875 51.171875 
L 3.125 52.34375 
Q 6.25 61.328125 11.125 65.421875 
Q 16.015625 69.53125 22.65625 69.921875 
Q 26.5625 70.3125 29.6875 69.71875 
Q 32.8125 69.140625 36.125 66.984375 
Q 39.453125 64.84375 41.59375 60.546875 
Q 43.75 56.25 43.15625 50.1875 
Q 42.578125 44.140625 37.109375 35.734375 
Q 31.640625 27.34375 16.015625 9.375 
L 44.140625 9.375 
L 44.140625 2.34375 
L 4.6875 2.34375 
z
" id="SimHei-50"/>
       </defs>
       <use xlink:href="#SimHei-50"/>
       <use x="50" xlink:href="#SimHei-46"/>
       <use x="100" xlink:href="#SimHei-48"/>
      </g>
     </g>
    </g>
    <g id="xtick_6">
     <g id="line2d_6">
      <g>
       <use style="stroke:#000000;stroke-width:0.8;" x="753.934835" xlink:href="#m9245b4c8ec" y="640.8"/>
      </g>
     </g>
     <g id="text_6">
      <!-- 2.5 -->
      <g transform="translate(746.434835 654.675)scale(0.1 -0.1)">
       <use xlink:href="#SimHei-50"/>
       <use x="50" xlink:href="#SimHei-46"/>
       <use x="100" xlink:href="#SimHei-53"/>
      </g>
     </g>
    </g>
    <g id="xtick_7">
     <g id="line2d_7">
      <g>
       <use style="stroke:#000000;stroke-width:0.8;" x="872.321802" xlink:href="#m9245b4c8ec" y="640.8"/>
      </g>
     </g>
     <g id="text_7">
      <!-- 3.0 -->
      <g transform="translate(864.821802 654.675)scale(0.1 -0.1)">
       <defs>
        <path d="M 3.90625 19.140625 
L 10.9375 20.3125 
Q 12.5 15.234375 16.015625 11.90625 
Q 19.53125 8.59375 24.796875 8.78125 
Q 30.078125 8.984375 33.203125 13.078125 
Q 36.328125 17.1875 35.9375 22.453125 
Q 35.546875 27.734375 31.828125 30.65625 
Q 28.125 33.59375 19.921875 34.765625 
L 19.921875 39.84375 
Q 28.125 40.625 31.828125 44.140625 
Q 35.546875 47.65625 35.15625 53.3125 
Q 34.765625 58.984375 30.078125 61.515625 
Q 25.390625 64.0625 20.109375 62.109375 
Q 14.84375 60.15625 11.71875 51.171875 
L 4.6875 52.34375 
Q 7.03125 59.375 11.125 64.0625 
Q 15.234375 68.75 22.265625 69.53125 
Q 29.296875 70.3125 34.5625 67.765625 
Q 39.84375 65.234375 41.984375 59.953125 
Q 44.140625 54.6875 42.578125 48.4375 
Q 41.015625 42.1875 33.59375 37.5 
Q 39.0625 35.15625 41.984375 30.46875 
Q 44.921875 25.78125 43.9375 18.15625 
Q 42.96875 10.546875 37.109375 5.859375 
Q 31.25 1.171875 23.828125 1.359375 
Q 16.40625 1.5625 10.9375 6.046875 
Q 5.46875 10.546875 3.90625 19.140625 
z
" id="SimHei-51"/>
       </defs>
       <use xlink:href="#SimHei-51"/>
       <use x="50" xlink:href="#SimHei-46"/>
       <use x="100" xlink:href="#SimHei-48"/>
      </g>
     </g>
    </g>
    <g id="xtick_8">
     <g id="line2d_8">
      <g>
       <use style="stroke:#000000;stroke-width:0.8;" x="990.708769" xlink:href="#m9245b4c8ec" y="640.8"/>
      </g>
     </g>
     <g id="text_8">
      <!-- 3.5 -->
      <g transform="translate(983.208769 654.675)scale(0.1 -0.1)">
       <use xlink:href="#SimHei-51"/>
       <use x="50" xlink:href="#SimHei-46"/>
       <use x="100" xlink:href="#SimHei-53"/>
      </g>
     </g>
    </g>
    <g id="xtick_9">
     <g id="line2d_9">
      <g>
       <use style="stroke:#000000;stroke-width:0.8;" x="1109.095736" xlink:href="#m9245b4c8ec" y="640.8"/>
      </g>
     </g>
     <g id="text_9">
      <!-- 4.0 -->
      <g transform="translate(1101.595736 654.675)scale(0.1 -0.1)">
       <defs>
        <path d="M 31.25 17.1875 
L 1.171875 17.1875 
L 1.171875 23.828125 
L 32.8125 69.53125 
L 38.671875 69.53125 
L 38.671875 23.828125 
L 48.046875 23.828125 
L 48.046875 17.1875 
L 38.671875 17.1875 
L 38.671875 2.34375 
L 31.25 2.34375 
z
M 31.25 23.828125 
L 31.25 54.6875 
L 9.375 23.828125 
z
" id="SimHei-52"/>
       </defs>
       <use xlink:href="#SimHei-52"/>
       <use x="50" xlink:href="#SimHei-46"/>
       <use x="100" xlink:href="#SimHei-48"/>
      </g>
     </g>
    </g>
    <g id="text_10">
     <!-- 时间 -->
     <g transform="translate(646.2 674.339062)scale(0.18 -0.18)">
      <defs>
       <path d="M 39.453125 71.484375 
Q 39.0625 57.421875 39.0625 37.5 
Q 39.0625 17.578125 39.453125 6.25 
L 31.25 6.25 
L 31.25 13.671875 
L 15.625 13.671875 
L 15.625 0.78125 
L 7.421875 0.78125 
Q 7.8125 18.75 7.8125 36.71875 
Q 7.8125 55.078125 7.421875 71.484375 
L 39.453125 71.484375 
z
M 76.171875 59.765625 
Q 76.171875 71.484375 75.78125 81.640625 
L 84.375 81.640625 
Q 83.984375 71.484375 83.984375 59.765625 
Q 89.84375 59.765625 96.484375 60.15625 
L 96.484375 52.734375 
Q 89.84375 53.125 83.984375 53.125 
L 83.984375 0.78125 
Q 83.984375 -5.078125 79.296875 -6.640625 
Q 74.609375 -8.203125 67.1875 -8.984375 
Q 67.1875 -4.296875 62.890625 0 
Q 70.3125 -0.78125 73.234375 -0.390625 
Q 76.171875 0 76.171875 4.6875 
L 76.171875 53.125 
Q 56.640625 53.125 43.359375 52.734375 
L 43.359375 60.15625 
Q 55.859375 59.765625 76.171875 59.765625 
z
M 31.25 20.3125 
L 31.25 39.84375 
L 15.625 39.84375 
L 15.625 20.3125 
z
M 31.25 46.484375 
L 31.25 64.84375 
L 15.625 64.84375 
L 15.625 46.484375 
z
M 55.46875 42.578125 
Q 60.546875 34.375 65.234375 25 
Q 61.328125 23.828125 57.03125 21.484375 
Q 53.90625 30.859375 48.046875 39.0625 
Q 51.5625 40.625 55.46875 42.578125 
z
" id="SimHei-26102"/>
       <path d="M 69.53125 55.46875 
Q 69.140625 48.046875 69.140625 42.578125 
L 69.140625 21.875 
Q 69.140625 16.796875 69.53125 9.765625 
L 30.078125 9.765625 
Q 30.46875 16.796875 30.46875 22.265625 
L 30.46875 42.578125 
Q 30.46875 48.046875 30.078125 55.46875 
L 69.53125 55.46875 
z
M 90.625 76.171875 
Q 90.234375 68.75 90.234375 61.328125 
L 90.234375 3.90625 
Q 90.625 -5.078125 85.34375 -7.03125 
Q 80.078125 -8.984375 73.828125 -9.765625 
Q 73.4375 -5.078125 70.703125 -0.390625 
Q 78.125 -0.78125 80.265625 0.390625 
Q 82.421875 1.5625 82.421875 5.46875 
L 82.421875 69.53125 
L 58.984375 69.53125 
Q 49.609375 69.53125 41.40625 69.140625 
L 41.40625 76.5625 
Q 49.609375 76.171875 58.984375 76.171875 
z
M 8.59375 -8.203125 
Q 9.375 -0.390625 9.375 8.203125 
L 9.375 49.21875 
Q 9.375 57.421875 8.59375 62.890625 
L 17.578125 62.890625 
Q 17.1875 57.03125 17.1875 51.5625 
L 17.1875 7.8125 
Q 17.1875 0 17.578125 -8.203125 
z
M 61.71875 16.015625 
L 61.71875 30.46875 
L 37.890625 30.46875 
L 37.890625 16.015625 
z
M 61.71875 36.71875 
L 61.71875 49.21875 
L 37.890625 49.21875 
L 37.890625 36.71875 
z
M 23.828125 82.8125 
Q 27.34375 78.125 34.765625 67.96875 
Q 30.46875 66.015625 26.5625 63.671875 
Q 22.65625 71.484375 16.796875 78.515625 
Q 21.09375 81.640625 23.828125 82.8125 
z
" id="SimHei-38388"/>
      </defs>
      <use xlink:href="#SimHei-26102"/>
      <use x="100" xlink:href="#SimHei-38388"/>
     </g>
    </g>
    <g id="text_11">
     <!-- 1e6 -->
     <g transform="translate(1151.4 665.8)scale(0.1 -0.1)">
      <defs>
       <path d="M 44.53125 16.796875 
Q 43.75 9.765625 38.28125 5.46875 
Q 32.8125 1.171875 25.390625 1.171875 
Q 16.015625 1.171875 9.953125 7.21875 
Q 3.90625 13.28125 3.90625 23.828125 
Q 3.90625 34.375 9.953125 40.421875 
Q 16.015625 46.484375 25.390625 46.484375 
Q 33.59375 46.484375 38.859375 41.203125 
Q 44.140625 35.9375 44.140625 23.828125 
L 12.5 23.828125 
Q 12.5 15.234375 16.203125 11.71875 
Q 19.921875 8.203125 25.390625 8.203125 
Q 29.6875 8.203125 32.421875 10.34375 
Q 35.15625 12.5 35.9375 16.796875 
z
M 35.15625 30.078125 
Q 34.375 35.546875 31.640625 37.6875 
Q 28.90625 39.84375 24.609375 39.84375 
Q 20.703125 39.84375 17.578125 37.6875 
Q 14.453125 35.546875 12.890625 30.078125 
z
" id="SimHei-101"/>
       <path d="M 3.515625 19.53125 
Q 4.296875 30.859375 6.046875 34.765625 
Q 7.8125 38.671875 11.328125 44.53125 
L 27.34375 69.53125 
L 36.328125 69.53125 
L 19.921875 43.75 
Q 30.46875 46.484375 36.71875 42.96875 
Q 42.96875 39.453125 45.109375 34.953125 
Q 47.265625 30.46875 47.453125 25.1875 
Q 47.65625 19.921875 45.890625 14.84375 
Q 44.140625 9.765625 39.640625 5.65625 
Q 35.15625 1.5625 27.140625 1.171875 
Q 19.140625 0.78125 13.46875 4.09375 
Q 7.8125 7.421875 5.65625 13.46875 
Q 3.515625 19.53125 4.296875 30.859375 
z
M 12.5 16.015625 
Q 19.53125 8.59375 25.390625 8.203125 
Q 31.25 7.8125 35.15625 12.109375 
Q 39.0625 16.40625 39.0625 24.609375 
Q 39.0625 32.8125 34.171875 35.9375 
Q 29.296875 39.0625 23.234375 38.28125 
Q 17.1875 37.5 14.453125 32.421875 
Q 11.71875 27.34375 12.109375 21.671875 
Q 12.5 16.015625 19.53125 8.59375 
z
" id="SimHei-54"/>
      </defs>
      <use xlink:href="#SimHei-49"/>
      <use x="50" xlink:href="#SimHei-101"/>
      <use x="100" xlink:href="#SimHei-54"/>
     </g>
    </g>
   </g>
   <g id="matplotlib.axis_2">
    <g id="ytick_1">
     <g id="line2d_10">
      <defs>
       <path d="M 0 0 
L -3.5 0 
" id="m46bbf44c93" style="stroke:#000000;stroke-width:0.8;"/>
      </defs>
      <g>
       <use style="stroke:#000000;stroke-width:0.8;" x="162" xlink:href="#m46bbf44c93" y="595.028571"/>
      </g>
     </g>
     <g id="text_12">
      <!-- #m-5 -->
      <g transform="translate(135 598.466071)scale(0.1 -0.1)">
       <defs>
        <path d="M 46.875 19.921875 
L 35.15625 19.921875 
L 32.8125 1.953125 
L 26.5625 1.953125 
L 28.90625 19.921875 
L 16.015625 19.921875 
L 13.671875 1.953125 
L 7.421875 1.953125 
L 9.765625 19.921875 
L 1.953125 19.921875 
L 1.953125 27.34375 
L 10.546875 27.34375 
L 12.890625 43.75 
L 1.953125 43.75 
L 1.953125 51.171875 
L 13.671875 51.171875 
L 16.015625 68.75 
L 22.265625 68.75 
L 19.921875 51.171875 
L 32.8125 51.171875 
L 35.15625 68.75 
L 41.40625 68.75 
L 39.0625 51.171875 
L 46.875 51.171875 
L 46.875 43.75 
L 38.28125 43.75 
L 35.9375 27.34375 
L 46.875 27.34375 
z
M 32.03125 43.75 
L 19.140625 43.75 
L 16.796875 27.34375 
L 29.6875 27.34375 
z
" id="SimHei-35"/>
        <path d="M 47.65625 1.953125 
L 39.84375 1.953125 
L 39.84375 33.59375 
Q 39.84375 35.9375 39.0625 37.5 
Q 38.28125 39.0625 35.9375 39.0625 
Q 33.203125 39.0625 30.859375 36.125 
Q 28.515625 33.203125 28.515625 28.515625 
L 28.515625 1.953125 
L 20.703125 1.953125 
L 20.703125 33.59375 
Q 20.703125 35.9375 19.921875 37.5 
Q 19.140625 39.0625 16.796875 39.0625 
Q 14.0625 39.0625 11.71875 36.125 
Q 9.375 33.203125 9.375 28.515625 
L 9.375 1.953125 
L 1.5625 1.953125 
L 1.5625 45.703125 
L 9.375 45.703125 
L 9.375 39.84375 
Q 11.328125 42.96875 14.0625 44.71875 
Q 16.796875 46.484375 19.921875 46.484375 
Q 23.046875 46.484375 25.1875 44.71875 
Q 27.34375 42.96875 28.125 39.84375 
Q 30.078125 42.96875 32.609375 44.71875 
Q 35.15625 46.484375 38.28125 46.484375 
Q 42.96875 46.484375 45.3125 43.9375 
Q 47.65625 41.40625 47.65625 36.71875 
z
" id="SimHei-109"/>
        <path d="M 46.484375 33.203125 
L 1.953125 33.203125 
L 1.953125 39.453125 
L 46.484375 39.453125 
z
" id="SimHei-45"/>
       </defs>
       <use xlink:href="#SimHei-35"/>
       <use x="50" xlink:href="#SimHei-109"/>
       <use x="100" xlink:href="#SimHei-45"/>
       <use x="150" xlink:href="#SimHei-53"/>
      </g>
     </g>
    </g>
    <g id="ytick_2">
     <g id="line2d_11">
      <g>
       <use style="stroke:#000000;stroke-width:0.8;" x="162" xlink:href="#m46bbf44c93" y="543.6"/>
      </g>
     </g>
     <g id="text_13">
      <!-- #m-7 -->
      <g transform="translate(135 547.0375)scale(0.1 -0.1)">
       <defs>
        <path d="M 13.28125 2.34375 
Q 20.3125 32.03125 37.890625 61.328125 
L 4.296875 61.328125 
L 4.296875 68.359375 
L 46.09375 68.359375 
L 46.09375 61.71875 
Q 27.734375 32.03125 21.875 2.34375 
L 13.28125 2.34375 
z
" id="SimHei-55"/>
       </defs>
       <use xlink:href="#SimHei-35"/>
       <use x="50" xlink:href="#SimHei-109"/>
       <use x="100" xlink:href="#SimHei-45"/>
       <use x="150" xlink:href="#SimHei-55"/>
      </g>
     </g>
    </g>
    <g id="ytick_3">
     <g id="line2d_12">
      <g>
       <use style="stroke:#000000;stroke-width:0.8;" x="162" xlink:href="#m46bbf44c93" y="492.171429"/>
      </g>
     </g>
     <g id="text_14">
      <!-- #m-2 -->
      <g transform="translate(135 495.608929)scale(0.1 -0.1)">
       <use xlink:href="#SimHei-35"/>
       <use x="50" xlink:href="#SimHei-109"/>
       <use x="100" xlink:href="#SimHei-45"/>
       <use x="150" xlink:href="#SimHei-50"/>
      </g>
     </g>
    </g>
    <g id="ytick_4">
     <g id="line2d_13">
      <g>
       <use style="stroke:#000000;stroke-width:0.8;" x="162" xlink:href="#m46bbf44c93" y="440.742857"/>
      </g>
     </g>
     <g id="text_15">
      <!-- #m-3 -->
      <g transform="translate(135 444.180357)scale(0.1 -0.1)">
       <use xlink:href="#SimHei-35"/>
       <use x="50" xlink:href="#SimHei-109"/>
       <use x="100" xlink:href="#SimHei-45"/>
       <use x="150" xlink:href="#SimHei-51"/>
      </g>
     </g>
    </g>
    <g id="ytick_5">
     <g id="line2d_14">
      <g>
       <use style="stroke:#000000;stroke-width:0.8;" x="162" xlink:href="#m46bbf44c93" y="389.314286"/>
      </g>
     </g>
     <g id="text_16">
      <!-- #m-8 -->
      <g transform="translate(135 392.751786)scale(0.1 -0.1)">
       <defs>
        <path d="M 2.734375 16.796875 
Q 2.734375 26.171875 5.078125 30.65625 
Q 7.421875 35.15625 12.890625 37.890625 
Q 8.203125 40.625 6.640625 43.9375 
Q 5.078125 47.265625 4.875 51.5625 
Q 4.6875 55.859375 6.046875 58.984375 
Q 7.421875 62.109375 10.15625 64.84375 
Q 12.890625 67.578125 16.203125 68.546875 
Q 19.53125 69.53125 23.4375 69.53125 
Q 27.34375 69.53125 30.46875 68.75 
Q 33.59375 67.96875 37.109375 65.421875 
Q 40.625 62.890625 42.1875 58.203125 
Q 43.75 53.515625 41.984375 47.265625 
Q 40.234375 41.015625 32.8125 37.5 
Q 39.453125 35.546875 42.1875 31.4375 
Q 44.921875 27.34375 44.921875 21.484375 
Q 44.921875 15.625 43.15625 12.109375 
Q 41.40625 8.59375 39.25 6.25 
Q 37.109375 3.90625 33.390625 2.53125 
Q 29.6875 1.171875 24.015625 1.171875 
Q 18.359375 1.171875 14.25 2.53125 
Q 10.15625 3.90625 7.421875 6.640625 
Q 4.6875 9.375 3.703125 13.078125 
Q 2.734375 16.796875 2.734375 26.171875 
z
M 10.9375 26.5625 
Q 10.546875 17.1875 12.296875 13.671875 
Q 14.0625 10.15625 18.75 9.171875 
Q 23.4375 8.203125 28.515625 9.375 
Q 33.59375 10.546875 35.546875 14.84375 
Q 37.5 19.140625 36.90625 23.4375 
Q 36.328125 27.734375 32.03125 30.65625 
Q 27.734375 33.59375 22.65625 33.203125 
Q 17.578125 32.8125 14.25 29.6875 
Q 10.9375 26.5625 10.546875 17.1875 
z
M 12.109375 56.25 
Q 12.109375 48.4375 14.84375 44.921875 
Q 17.578125 41.40625 23.4375 41.40625 
Q 29.296875 41.40625 32.21875 44.921875 
Q 35.15625 48.4375 34.953125 53.3125 
Q 34.765625 58.203125 31.4375 60.546875 
Q 28.125 62.890625 22.453125 62.5 
Q 16.796875 62.109375 14.453125 59.171875 
Q 12.109375 56.25 12.109375 48.4375 
z
" id="SimHei-56"/>
       </defs>
       <use xlink:href="#SimHei-35"/>
       <use x="50" xlink:href="#SimHei-109"/>
       <use x="100" xlink:href="#SimHei-45"/>
       <use x="150" xlink:href="#SimHei-56"/>
      </g>
     </g>
    </g>
    <g id="ytick_6">
     <g id="line2d_15">
      <g>
       <use style="stroke:#000000;stroke-width:0.8;" x="162" xlink:href="#m46bbf44c93" y="337.885714"/>
      </g>
     </g>
     <g id="text_17">
      <!-- #m-9 -->
      <g transform="translate(135 341.323214)scale(0.1 -0.1)">
       <defs>
        <path d="M 12.5 1.171875 
Q 21.09375 15.625 26.5625 27.34375 
Q 16.796875 25.78125 10.34375 29.875 
Q 3.90625 33.984375 2.53125 41.015625 
Q 1.171875 48.046875 2.734375 53.703125 
Q 4.296875 59.375 7.609375 63.078125 
Q 10.9375 66.796875 15.625 68.359375 
Q 20.3125 69.921875 24.015625 69.921875 
Q 27.734375 69.921875 31.640625 68.359375 
Q 35.546875 66.796875 38.671875 63.671875 
Q 41.796875 60.546875 42.96875 57.21875 
Q 44.140625 53.90625 44.140625 48.625 
Q 44.140625 43.359375 40.234375 35.15625 
Q 36.328125 26.953125 21.09375 1.171875 
z
M 9.765625 50 
Q 10.9375 39.84375 14.640625 36.515625 
Q 18.359375 33.203125 22.65625 33.59375 
Q 26.953125 33.984375 29.484375 35.9375 
Q 32.03125 37.890625 34.375 42.578125 
Q 35.9375 48.4375 35.15625 52.53125 
Q 34.375 56.640625 31.046875 59.375 
Q 27.734375 62.109375 23.828125 62.109375 
Q 21.484375 62.5 17.765625 60.9375 
Q 14.0625 59.375 11.90625 54.6875 
Q 9.765625 50 10.9375 39.84375 
z
" id="SimHei-57"/>
       </defs>
       <use xlink:href="#SimHei-35"/>
       <use x="50" xlink:href="#SimHei-109"/>
       <use x="100" xlink:href="#SimHei-45"/>
       <use x="150" xlink:href="#SimHei-57"/>
      </g>
     </g>
    </g>
    <g id="ytick_7">
     <g id="line2d_16">
      <g>
       <use style="stroke:#000000;stroke-width:0.8;" x="162" xlink:href="#m46bbf44c93" y="286.457143"/>
      </g>
     </g>
     <g id="text_18">
      <!-- #m-4 -->
      <g transform="translate(135 289.894643)scale(0.1 -0.1)">
       <use xlink:href="#SimHei-35"/>
       <use x="50" xlink:href="#SimHei-109"/>
       <use x="100" xlink:href="#SimHei-45"/>
       <use x="150" xlink:href="#SimHei-52"/>
      </g>
     </g>
    </g>
    <g id="ytick_8">
     <g id="line2d_17">
      <g>
       <use style="stroke:#000000;stroke-width:0.8;" x="162" xlink:href="#m46bbf44c93" y="235.028571"/>
      </g>
     </g>
     <g id="text_19">
      <!-- #m-10 -->
      <g transform="translate(130 238.466071)scale(0.1 -0.1)">
       <use xlink:href="#SimHei-35"/>
       <use x="50" xlink:href="#SimHei-109"/>
       <use x="100" xlink:href="#SimHei-45"/>
       <use x="150" xlink:href="#SimHei-49"/>
       <use x="200" xlink:href="#SimHei-48"/>
      </g>
     </g>
    </g>
    <g id="ytick_9">
     <g id="line2d_18">
      <g>
       <use style="stroke:#000000;stroke-width:0.8;" x="162" xlink:href="#m46bbf44c93" y="183.6"/>
      </g>
     </g>
     <g id="text_20">
      <!-- #m-1 -->
      <g transform="translate(135 187.0375)scale(0.1 -0.1)">
       <use xlink:href="#SimHei-35"/>
       <use x="50" xlink:href="#SimHei-109"/>
       <use x="100" xlink:href="#SimHei-45"/>
       <use x="150" xlink:href="#SimHei-49"/>
      </g>
     </g>
    </g>
    <g id="ytick_10">
     <g id="line2d_19">
      <g>
       <use style="stroke:#000000;stroke-width:0.8;" x="162" xlink:href="#m46bbf44c93" y="132.171429"/>
      </g>
     </g>
     <g id="text_21">
      <!-- #m-6 -->
      <g transform="translate(135 135.608929)scale(0.1 -0.1)">
       <use xlink:href="#SimHei-35"/>
       <use x="50" xlink:href="#SimHei-109"/>
       <use x="100" xlink:href="#SimHei-45"/>
       <use x="150" xlink:href="#SimHei-54"/>
      </g>
     </g>
    </g>
    <g id="text_22">
     <!-- 机器编号 -->
     <g transform="translate(123.75 399.6)rotate(-90)scale(0.18 -0.18)">
      <defs>
       <path d="M 79.6875 74.609375 
Q 79.296875 63.671875 79.296875 55.859375 
L 79.296875 5.078125 
Q 79.296875 0 81.640625 -0.390625 
Q 83.984375 -0.78125 85.546875 -0.578125 
Q 87.109375 -0.390625 87.6875 2.140625 
Q 88.28125 4.6875 88.28125 9.765625 
Q 91.796875 7.8125 96.484375 6.640625 
Q 94.921875 -1.5625 93.359375 -4.296875 
Q 91.796875 -7.03125 88.28125 -7.03125 
L 80.078125 -7.03125 
Q 75.390625 -7.03125 73.234375 -4.875 
Q 71.09375 -2.734375 71.484375 3.90625 
L 71.484375 67.96875 
L 56.640625 67.96875 
Q 56.640625 45.703125 56.046875 33.390625 
Q 55.46875 21.09375 52.53125 11.125 
Q 49.609375 1.171875 41.015625 -8.984375 
Q 39.0625 -6.640625 33.984375 -2.734375 
Q 39.453125 1.5625 42.765625 7.8125 
Q 46.09375 14.0625 47.265625 20.703125 
Q 48.4375 27.34375 48.828125 34.765625 
Q 49.21875 42.1875 49.21875 53.515625 
Q 49.21875 65.234375 48.828125 74.609375 
L 79.6875 74.609375 
z
M 33.59375 42.578125 
Q 39.84375 33.984375 42.96875 29.296875 
Q 40.234375 26.953125 36.328125 24.21875 
Q 33.984375 29.296875 28.125 37.890625 
L 28.125 9.375 
Q 28.125 1.5625 28.515625 -8.203125 
L 19.921875 -8.203125 
Q 20.3125 1.5625 20.3125 9.375 
L 20.3125 34.375 
Q 18.359375 28.515625 16.015625 23.234375 
Q 13.671875 17.96875 9.375 11.328125 
Q 5.859375 15.234375 3.125 17.578125 
Q 6.25 21.09375 11.328125 31.25 
Q 16.40625 41.40625 19.140625 53.90625 
L 16.796875 53.90625 
Q 11.328125 53.90625 5.859375 53.125 
L 5.859375 60.546875 
Q 11.328125 60.15625 16.40625 60.15625 
L 20.3125 60.15625 
L 20.3125 67.96875 
Q 20.3125 74.21875 19.921875 79.6875 
L 28.90625 79.6875 
Q 28.125 75.78125 28.125 67.96875 
L 28.125 60.15625 
L 32.421875 60.15625 
Q 36.71875 60.15625 42.1875 60.546875 
L 42.1875 53.515625 
Q 33.59375 53.90625 28.125 53.90625 
L 28.125 38.28125 
Q 30.46875 40.234375 33.59375 42.578125 
z
" id="SimHei-26426"/>
       <path d="M 4.296875 30.078125 
Q 12.109375 30.078125 18.9375 31.25 
Q 25.78125 32.421875 31.046875 34.375 
Q 36.328125 36.328125 41.015625 41.015625 
L 23.828125 41.015625 
Q 19.53125 41.015625 8.59375 40.625 
L 8.59375 47.265625 
Q 19.53125 46.875 23.828125 46.875 
L 42.96875 46.875 
Q 44.140625 50.390625 43.75 55.46875 
Q 48.828125 54.6875 54.296875 53.90625 
Q 51.953125 51.5625 51.5625 46.875 
L 69.140625 46.875 
Q 66.40625 49.609375 63.671875 51.5625 
L 69.140625 55.46875 
Q 72.265625 53.125 75 50 
Q 72.65625 48.828125 70.3125 46.875 
L 76.171875 46.875 
Q 84.765625 46.875 91.796875 47.265625 
L 91.796875 40.625 
Q 85.15625 41.015625 76.171875 41.015625 
L 56.640625 41.015625 
Q 64.0625 34.765625 75.578125 33 
Q 87.109375 31.25 95.3125 32.03125 
Q 92.1875 28.125 91.40625 23.4375 
Q 81.640625 24.21875 74.796875 25.578125 
Q 67.96875 26.953125 62.296875 29.6875 
Q 56.640625 32.421875 49.21875 40.234375 
Q 42.1875 31.25 30.859375 27.53125 
Q 19.53125 23.828125 8.203125 22.265625 
Q 7.03125 26.953125 4.296875 30.078125 
z
M 78.515625 -8.984375 
L 78.515625 -1.5625 
L 59.765625 -1.5625 
L 59.765625 -8.59375 
L 53.125 -8.59375 
Q 53.515625 0 53.515625 7.421875 
Q 53.515625 15.234375 53.125 22.265625 
L 85.546875 22.265625 
Q 85.15625 17.578125 85.15625 6.25 
Q 85.15625 -4.6875 85.546875 -8.984375 
z
M 37.5 -8.59375 
L 37.5 -1.5625 
L 20.703125 -1.5625 
L 20.703125 -8.984375 
L 13.671875 -8.984375 
Q 14.0625 -2.34375 14.0625 7.421875 
Q 14.0625 17.1875 13.671875 22.265625 
L 44.140625 22.265625 
Q 43.75 16.015625 43.75 6.640625 
Q 43.75 -2.34375 44.140625 -8.59375 
z
M 85.546875 78.515625 
Q 85.15625 73.4375 85.15625 67.96875 
Q 85.15625 62.5 85.546875 56.640625 
L 52.734375 56.640625 
Q 53.125 62.5 53.125 67.96875 
Q 53.125 73.828125 52.734375 78.515625 
L 85.546875 78.515625 
z
M 44.140625 78.515625 
Q 43.75 73.4375 43.75 67.578125 
Q 43.75 62.109375 44.140625 56.640625 
L 13.671875 56.640625 
Q 14.0625 62.109375 14.0625 67.578125 
Q 14.0625 73.4375 13.671875 78.515625 
L 44.140625 78.515625 
z
M 78.515625 3.90625 
L 78.515625 16.40625 
L 59.765625 16.40625 
L 59.765625 3.90625 
z
M 37.5 3.90625 
L 37.5 16.40625 
L 20.703125 16.40625 
L 20.703125 3.90625 
z
M 78.515625 62.109375 
L 78.515625 73.046875 
L 59.765625 73.046875 
L 59.765625 62.109375 
z
M 37.5 62.109375 
L 37.5 73.046875 
L 20.703125 73.046875 
L 20.703125 62.109375 
z
" id="SimHei-22120"/>
       <path d="M 66.796875 82.03125 
Q 68.359375 75.78125 69.921875 70.3125 
L 90.234375 70.3125 
Q 89.84375 65.625 89.84375 59.765625 
Q 89.84375 53.90625 90.234375 49.609375 
L 48.4375 49.609375 
Q 48.046875 43.75 47.65625 39.84375 
L 93.75 39.84375 
Q 93.359375 33.59375 93.359375 26.5625 
L 93.359375 -0.390625 
Q 93.359375 -6.25 90.8125 -7.8125 
Q 88.28125 -9.375 82.421875 -10.9375 
Q 81.25 -6.25 78.90625 -2.34375 
Q 84.375 -2.34375 85.546875 -1.75 
Q 86.71875 -1.171875 86.71875 2.34375 
L 86.71875 15.625 
L 78.90625 15.625 
Q 78.90625 7.03125 79.296875 -0.78125 
L 72.265625 -0.78125 
Q 72.65625 7.03125 72.65625 15.625 
L 64.84375 15.625 
Q 64.84375 3.515625 65.234375 -1.171875 
L 58.203125 -1.171875 
Q 58.59375 3.515625 58.59375 15.625 
L 50.78125 15.625 
L 50.78125 -10.15625 
L 43.359375 -10.15625 
Q 44.140625 -2.734375 44.140625 4.296875 
L 44.140625 25.390625 
Q 41.015625 16.796875 36.71875 9.375 
Q 33.984375 14.453125 31.640625 17.1875 
Q 35.15625 21.875 37.109375 26.5625 
Q 39.0625 31.25 40.234375 39.453125 
Q 41.40625 47.65625 41.40625 55.859375 
Q 41.40625 64.0625 41.015625 70.3125 
L 61.328125 70.3125 
Q 60.546875 74.609375 58.59375 79.6875 
Q 63.671875 80.859375 66.796875 82.03125 
z
M 28.515625 76.171875 
Q 26.171875 73.828125 21.671875 64.84375 
Q 17.1875 55.859375 13.671875 49.21875 
L 24.609375 49.609375 
Q 26.953125 54.296875 29.296875 60.15625 
Q 32.8125 57.421875 37.109375 54.6875 
Q 33.59375 51.171875 29.09375 43.9375 
Q 24.609375 36.71875 16.796875 26.171875 
Q 25 26.953125 32.421875 28.125 
L 31.640625 21.09375 
Q 26.953125 20.703125 21.09375 19.921875 
Q 15.234375 19.140625 8.59375 16.40625 
Q 7.8125 20.703125 6.25 24.609375 
Q 9.375 25 12.890625 30.078125 
Q 16.40625 35.15625 21.875 43.75 
Q 18.359375 43.75 14.84375 43.359375 
Q 11.328125 42.96875 7.03125 41.40625 
Q 5.859375 46.09375 4.296875 49.609375 
Q 8.203125 50.390625 12.5 60.34375 
Q 16.796875 70.3125 19.140625 80.078125 
Q 23.828125 77.34375 28.515625 76.171875 
z
M 83.203125 55.078125 
L 83.203125 64.84375 
L 48.4375 64.84375 
L 48.4375 55.078125 
z
M 32.8125 12.5 
Q 32.421875 8.203125 32.8125 4.6875 
Q 24.609375 2.734375 18.9375 0.78125 
Q 13.28125 -1.171875 6.25 -4.6875 
L 3.125 4.6875 
Q 7.8125 5.078125 16.203125 7.21875 
Q 24.609375 9.375 32.8125 12.5 
z
M 72.65625 21.09375 
L 72.65625 34.375 
L 64.84375 34.375 
L 64.84375 21.09375 
z
M 86.71875 21.09375 
L 86.71875 34.375 
L 78.90625 34.375 
L 78.90625 21.09375 
z
M 58.59375 21.09375 
L 58.59375 34.375 
L 50.78125 34.375 
L 50.78125 21.09375 
z
" id="SimHei-32534"/>
       <path d="M 78.515625 76.953125 
Q 78.125 71.09375 78.125 63.671875 
Q 78.125 56.25 78.515625 49.609375 
L 21.875 49.609375 
Q 22.265625 55.078125 22.265625 62.5 
Q 22.265625 70.3125 21.875 76.953125 
L 78.515625 76.953125 
z
M 80.859375 41.015625 
Q 88.28125 41.015625 94.140625 41.40625 
L 94.140625 34.375 
Q 88.28125 34.765625 80.859375 34.765625 
L 38.28125 34.765625 
Q 36.71875 29.296875 34.765625 22.65625 
L 80.859375 22.65625 
Q 79.6875 16.40625 79.09375 12.109375 
Q 78.515625 7.8125 77.34375 1.75 
Q 76.171875 -4.296875 72.65625 -6.4375 
Q 69.140625 -8.59375 50.390625 -9.765625 
Q 48.828125 -5.46875 46.484375 -0.78125 
Q 60.546875 -1.171875 64.25 -0.78125 
Q 67.96875 -0.390625 69.140625 3.3125 
Q 70.3125 7.03125 71.484375 16.015625 
L 25 16.015625 
Q 28.515625 25.390625 30.46875 34.765625 
L 21.09375 34.765625 
Q 12.890625 34.765625 5.859375 34.375 
L 5.859375 41.40625 
Q 12.890625 41.015625 21.09375 41.015625 
z
M 70.703125 55.859375 
L 70.703125 70.703125 
L 29.6875 70.703125 
L 29.6875 55.859375 
z
" id="SimHei-21495"/>
      </defs>
      <use xlink:href="#SimHei-26426"/>
      <use x="100" xlink:href="#SimHei-22120"/>
      <use x="200" xlink:href="#SimHei-32534"/>
      <use x="300" xlink:href="#SimHei-21495"/>
     </g>
    </g>
   </g>
   <g id="patch_23">
    <path d="M 162 640.8 
L 162 86.4 
" style="fill:none;stroke:#000000;stroke-linecap:square;stroke-linejoin:miter;stroke-width:0.8;"/>
   </g>
   <g id="patch_24">
    <path d="M 1166.4 640.8 
L 1166.4 86.4 
" style="fill:none;stroke:#000000;stroke-linecap:square;stroke-linejoin:miter;stroke-width:0.8;"/>
   </g>
   <g id="patch_25">
    <path d="M 162 640.8 
L 1166.4 640.8 
" style="fill:none;stroke:#000000;stroke-linecap:square;stroke-linejoin:miter;stroke-width:0.8;"/>
   </g>
   <g id="patch_26">
    <path d="M 162 86.4 
L 1166.4 86.4 
" style="fill:none;stroke:#000000;stroke-linecap:square;stroke-linejoin:miter;stroke-width:0.8;"/>
   </g>
   <g id="text_23">
    <!-- #o-3-#w-3:2800000 -->
    <g transform="translate(162 440.742857)scale(0.1 -0.1)">
     <defs>
      <path d="M 45.703125 23.828125 
Q 45.703125 13.671875 39.453125 7.421875 
Q 33.203125 1.171875 24.609375 1.171875 
Q 16.015625 1.171875 9.765625 7.421875 
Q 3.515625 13.671875 3.515625 23.828125 
Q 3.515625 33.984375 9.765625 40.234375 
Q 16.015625 46.484375 24.609375 46.484375 
Q 33.203125 46.484375 39.453125 40.234375 
Q 45.703125 33.984375 45.703125 23.828125 
z
M 37.109375 23.828125 
Q 37.109375 31.640625 33.203125 35.546875 
Q 29.296875 39.453125 24.609375 39.453125 
Q 19.921875 39.453125 16.015625 35.546875 
Q 12.109375 31.640625 12.109375 23.828125 
Q 12.109375 16.015625 16.015625 12.109375 
Q 19.921875 8.203125 24.609375 8.203125 
Q 29.296875 8.203125 33.203125 12.109375 
Q 37.109375 16.015625 37.109375 23.828125 
z
" id="SimHei-111"/>
      <path d="M 48.046875 45.703125 
L 38.28125 1.171875 
L 30.859375 1.171875 
L 24.609375 35.15625 
L 23.828125 35.15625 
L 17.578125 1.171875 
L 10.15625 1.171875 
L 0.390625 45.703125 
L 8.59375 45.703125 
L 13.671875 16.40625 
L 14.453125 16.40625 
L 19.921875 45.703125 
L 28.515625 45.703125 
L 33.984375 16.40625 
L 34.765625 16.40625 
L 39.84375 45.703125 
z
" id="SimHei-119"/>
      <path d="M 28.515625 37.890625 
L 19.53125 37.890625 
L 19.53125 46.484375 
L 28.515625 46.484375 
z
M 28.515625 1.953125 
L 19.53125 1.953125 
L 19.53125 10.546875 
L 28.515625 10.546875 
z
" id="SimHei-58"/>
     </defs>
     <use xlink:href="#SimHei-35"/>
     <use x="50" xlink:href="#SimHei-111"/>
     <use x="100" xlink:href="#SimHei-45"/>
     <use x="150" xlink:href="#SimHei-51"/>
     <use x="200" xlink:href="#SimHei-45"/>
     <use x="250" xlink:href="#SimHei-35"/>
     <use x="300" xlink:href="#SimHei-119"/>
     <use x="350" xlink:href="#SimHei-45"/>
     <use x="400" xlink:href="#SimHei-51"/>
     <use x="450" xlink:href="#SimHei-58"/>
     <use x="500" xlink:href="#SimHei-50"/>
     <use x="550" xlink:href="#SimHei-56"/>
     <use x="600" xlink:href="#SimHei-48"/>
     <use x="650" xlink:href="#SimHei-48"/>
     <use x="700" xlink:href="#SimHei-48"/>
     <use x="750" xlink:href="#SimHei-48"/>
     <use x="800" xlink:href="#SimHei-48"/>
    </g>
   </g>
   <g id="text_24">
    <!-- #o-1-#w-2:3640020 -->
    <g transform="translate(597.668774 492.171429)scale(0.1 -0.1)">
     <use xlink:href="#SimHei-35"/>
     <use x="50" xlink:href="#SimHei-111"/>
     <use x="100" xlink:href="#SimHei-45"/>
     <use x="150" xlink:href="#SimHei-49"/>
     <use x="200" xlink:href="#SimHei-45"/>
     <use x="250" xlink:href="#SimHei-35"/>
     <use x="300" xlink:href="#SimHei-119"/>
     <use x="350" xlink:href="#SimHei-45"/>
     <use x="400" xlink:href="#SimHei-50"/>
     <use x="450" xlink:href="#SimHei-58"/>
     <use x="500" xlink:href="#SimHei-51"/>
     <use x="550" xlink:href="#SimHei-54"/>
     <use x="600" xlink:href="#SimHei-52"/>
     <use x="650" xlink:href="#SimHei-48"/>
     <use x="700" xlink:href="#SimHei-48"/>
     <use x="750" xlink:href="#SimHei-50"/>
     <use x="800" xlink:href="#SimHei-48"/>
    </g>
   </g>
   <g id="text_25">
    <!-- #o-3-#w-1:3640010 -->
    <g transform="translate(493.485875 286.457143)scale(0.1 -0.1)">
     <use xlink:href="#SimHei-35"/>
     <use x="50" xlink:href="#SimHei-111"/>
     <use x="100" xlink:href="#SimHei-45"/>
     <use x="150" xlink:href="#SimHei-51"/>
     <use x="200" xlink:href="#SimHei-45"/>
     <use x="250" xlink:href="#SimHei-35"/>
     <use x="300" xlink:href="#SimHei-119"/>
     <use x="350" xlink:href="#SimHei-45"/>
     <use x="400" xlink:href="#SimHei-49"/>
     <use x="450" xlink:href="#SimHei-58"/>
     <use x="500" xlink:href="#SimHei-51"/>
     <use x="550" xlink:href="#SimHei-54"/>
     <use x="600" xlink:href="#SimHei-52"/>
     <use x="650" xlink:href="#SimHei-48"/>
     <use x="700" xlink:href="#SimHei-48"/>
     <use x="750" xlink:href="#SimHei-49"/>
     <use x="800" xlink:href="#SimHei-48"/>
    </g>
   </g>
   <g id="text_26">
    <!-- #o-2-#w-6:1400000 -->
    <g transform="translate(162 286.457143)scale(0.1 -0.1)">
     <use xlink:href="#SimHei-35"/>
     <use x="50" xlink:href="#SimHei-111"/>
     <use x="100" xlink:href="#SimHei-45"/>
     <use x="150" xlink:href="#SimHei-50"/>
     <use x="200" xlink:href="#SimHei-45"/>
     <use x="250" xlink:href="#SimHei-35"/>
     <use x="300" xlink:href="#SimHei-119"/>
     <use x="350" xlink:href="#SimHei-45"/>
     <use x="400" xlink:href="#SimHei-54"/>
     <use x="450" xlink:href="#SimHei-58"/>
     <use x="500" xlink:href="#SimHei-49"/>
     <use x="550" xlink:href="#SimHei-52"/>
     <use x="600" xlink:href="#SimHei-48"/>
     <use x="650" xlink:href="#SimHei-48"/>
     <use x="700" xlink:href="#SimHei-48"/>
     <use x="750" xlink:href="#SimHei-48"/>
     <use x="800" xlink:href="#SimHei-48"/>
    </g>
   </g>
   <g id="text_27">
    <!-- #o-2-#w-5:1840000 -->
    <g transform="translate(162 492.171429)scale(0.1 -0.1)">
     <use xlink:href="#SimHei-35"/>
     <use x="50" xlink:href="#SimHei-111"/>
     <use x="100" xlink:href="#SimHei-45"/>
     <use x="150" xlink:href="#SimHei-50"/>
     <use x="200" xlink:href="#SimHei-45"/>
     <use x="250" xlink:href="#SimHei-35"/>
     <use x="300" xlink:href="#SimHei-119"/>
     <use x="350" xlink:href="#SimHei-45"/>
     <use x="400" xlink:href="#SimHei-53"/>
     <use x="450" xlink:href="#SimHei-58"/>
     <use x="500" xlink:href="#SimHei-49"/>
     <use x="550" xlink:href="#SimHei-56"/>
     <use x="600" xlink:href="#SimHei-52"/>
     <use x="650" xlink:href="#SimHei-48"/>
     <use x="700" xlink:href="#SimHei-48"/>
     <use x="750" xlink:href="#SimHei-48"/>
     <use x="800" xlink:href="#SimHei-48"/>
    </g>
   </g>
   <g id="text_28">
    <!-- #o-3-#w-3:3120000 -->
    <g transform="translate(824.967015 389.314286)scale(0.1 -0.1)">
     <use xlink:href="#SimHei-35"/>
     <use x="50" xlink:href="#SimHei-111"/>
     <use x="100" xlink:href="#SimHei-45"/>
     <use x="150" xlink:href="#SimHei-51"/>
     <use x="200" xlink:href="#SimHei-45"/>
     <use x="250" xlink:href="#SimHei-35"/>
     <use x="300" xlink:href="#SimHei-119"/>
     <use x="350" xlink:href="#SimHei-45"/>
     <use x="400" xlink:href="#SimHei-51"/>
     <use x="450" xlink:href="#SimHei-58"/>
     <use x="500" xlink:href="#SimHei-51"/>
     <use x="550" xlink:href="#SimHei-49"/>
     <use x="600" xlink:href="#SimHei-50"/>
     <use x="650" xlink:href="#SimHei-48"/>
     <use x="700" xlink:href="#SimHei-48"/>
     <use x="750" xlink:href="#SimHei-48"/>
     <use x="800" xlink:href="#SimHei-48"/>
    </g>
   </g>
   <g id="text_29">
    <!-- #o-1-#w-1:2800000 -->
    <g transform="translate(162 595.028571)scale(0.1 -0.1)">
     <use xlink:href="#SimHei-35"/>
     <use x="50" xlink:href="#SimHei-111"/>
     <use x="100" xlink:href="#SimHei-45"/>
     <use x="150" xlink:href="#SimHei-49"/>
     <use x="200" xlink:href="#SimHei-45"/>
     <use x="250" xlink:href="#SimHei-35"/>
     <use x="300" xlink:href="#SimHei-119"/>
     <use x="350" xlink:href="#SimHei-45"/>
     <use x="400" xlink:href="#SimHei-49"/>
     <use x="450" xlink:href="#SimHei-58"/>
     <use x="500" xlink:href="#SimHei-50"/>
     <use x="550" xlink:href="#SimHei-56"/>
     <use x="600" xlink:href="#SimHei-48"/>
     <use x="650" xlink:href="#SimHei-48"/>
     <use x="700" xlink:href="#SimHei-48"/>
     <use x="750" xlink:href="#SimHei-48"/>
     <use x="800" xlink:href="#SimHei-48"/>
    </g>
   </g>
   <g id="text_30">
    <!-- #o-1-#w-3:3010015 -->
    <g transform="translate(230.667992 183.6)scale(0.1 -0.1)">
     <use xlink:href="#SimHei-35"/>
     <use x="50" xlink:href="#SimHei-111"/>
     <use x="100" xlink:href="#SimHei-45"/>
     <use x="150" xlink:href="#SimHei-49"/>
     <use x="200" xlink:href="#SimHei-45"/>
     <use x="250" xlink:href="#SimHei-35"/>
     <use x="300" xlink:href="#SimHei-119"/>
     <use x="350" xlink:href="#SimHei-45"/>
     <use x="400" xlink:href="#SimHei-51"/>
     <use x="450" xlink:href="#SimHei-58"/>
     <use x="500" xlink:href="#SimHei-51"/>
     <use x="550" xlink:href="#SimHei-48"/>
     <use x="600" xlink:href="#SimHei-49"/>
     <use x="650" xlink:href="#SimHei-48"/>
     <use x="700" xlink:href="#SimHei-48"/>
     <use x="750" xlink:href="#SimHei-49"/>
     <use x="800" xlink:href="#SimHei-53"/>
    </g>
   </g>
   <g id="text_31">
    <!-- #o-2-#w-6:1600000 -->
    <g transform="translate(493.483508 389.314286)scale(0.1 -0.1)">
     <use xlink:href="#SimHei-35"/>
     <use x="50" xlink:href="#SimHei-111"/>
     <use x="100" xlink:href="#SimHei-45"/>
     <use x="150" xlink:href="#SimHei-50"/>
     <use x="200" xlink:href="#SimHei-45"/>
     <use x="250" xlink:href="#SimHei-35"/>
     <use x="300" xlink:href="#SimHei-119"/>
     <use x="350" xlink:href="#SimHei-45"/>
     <use x="400" xlink:href="#SimHei-54"/>
     <use x="450" xlink:href="#SimHei-58"/>
     <use x="500" xlink:href="#SimHei-49"/>
     <use x="550" xlink:href="#SimHei-54"/>
     <use x="600" xlink:href="#SimHei-48"/>
     <use x="650" xlink:href="#SimHei-48"/>
     <use x="700" xlink:href="#SimHei-48"/>
     <use x="750" xlink:href="#SimHei-48"/>
     <use x="800" xlink:href="#SimHei-48"/>
    </g>
   </g>
   <g id="text_32">
    <!-- #o-3-#w-7:3592015 -->
    <g transform="translate(824.970567 440.742857)scale(0.1 -0.1)">
     <use xlink:href="#SimHei-35"/>
     <use x="50" xlink:href="#SimHei-111"/>
     <use x="100" xlink:href="#SimHei-45"/>
     <use x="150" xlink:href="#SimHei-51"/>
     <use x="200" xlink:href="#SimHei-45"/>
     <use x="250" xlink:href="#SimHei-35"/>
     <use x="300" xlink:href="#SimHei-119"/>
     <use x="350" xlink:href="#SimHei-45"/>
     <use x="400" xlink:href="#SimHei-55"/>
     <use x="450" xlink:href="#SimHei-58"/>
     <use x="500" xlink:href="#SimHei-51"/>
     <use x="550" xlink:href="#SimHei-53"/>
     <use x="600" xlink:href="#SimHei-57"/>
     <use x="650" xlink:href="#SimHei-50"/>
     <use x="700" xlink:href="#SimHei-48"/>
     <use x="750" xlink:href="#SimHei-49"/>
     <use x="800" xlink:href="#SimHei-53"/>
    </g>
   </g>
   <g id="text_33">
    <!-- #o-1-#w-1:3200000 -->
    <g transform="translate(824.967015 132.171429)scale(0.1 -0.1)">
     <use xlink:href="#SimHei-35"/>
     <use x="50" xlink:href="#SimHei-111"/>
     <use x="100" xlink:href="#SimHei-45"/>
     <use x="150" xlink:href="#SimHei-49"/>
     <use x="200" xlink:href="#SimHei-45"/>
     <use x="250" xlink:href="#SimHei-35"/>
     <use x="300" xlink:href="#SimHei-119"/>
     <use x="350" xlink:href="#SimHei-45"/>
     <use x="400" xlink:href="#SimHei-49"/>
     <use x="450" xlink:href="#SimHei-58"/>
     <use x="500" xlink:href="#SimHei-51"/>
     <use x="550" xlink:href="#SimHei-50"/>
     <use x="600" xlink:href="#SimHei-48"/>
     <use x="650" xlink:href="#SimHei-48"/>
     <use x="700" xlink:href="#SimHei-48"/>
     <use x="750" xlink:href="#SimHei-48"/>
     <use x="800" xlink:href="#SimHei-48"/>
    </g>
   </g>
   <g id="text_34">
    <!-- #o-1-#w-3:3520010 -->
    <g transform="translate(919.678956 132.171429)scale(0.1 -0.1)">
     <use xlink:href="#SimHei-35"/>
     <use x="50" xlink:href="#SimHei-111"/>
     <use x="100" xlink:href="#SimHei-45"/>
     <use x="150" xlink:href="#SimHei-49"/>
     <use x="200" xlink:href="#SimHei-45"/>
     <use x="250" xlink:href="#SimHei-35"/>
     <use x="300" xlink:href="#SimHei-119"/>
     <use x="350" xlink:href="#SimHei-45"/>
     <use x="400" xlink:href="#SimHei-51"/>
     <use x="450" xlink:href="#SimHei-58"/>
     <use x="500" xlink:href="#SimHei-51"/>
     <use x="550" xlink:href="#SimHei-53"/>
     <use x="600" xlink:href="#SimHei-50"/>
     <use x="650" xlink:href="#SimHei-48"/>
     <use x="700" xlink:href="#SimHei-48"/>
     <use x="750" xlink:href="#SimHei-49"/>
     <use x="800" xlink:href="#SimHei-48"/>
    </g>
   </g>
   <g id="text_35">
    <!-- #o-2-#w-5:2240000 -->
    <g transform="translate(597.664038 389.314286)scale(0.1 -0.1)">
     <use xlink:href="#SimHei-35"/>
     <use x="50" xlink:href="#SimHei-111"/>
     <use x="100" xlink:href="#SimHei-45"/>
     <use x="150" xlink:href="#SimHei-50"/>
     <use x="200" xlink:href="#SimHei-45"/>
     <use x="250" xlink:href="#SimHei-35"/>
     <use x="300" xlink:href="#SimHei-119"/>
     <use x="350" xlink:href="#SimHei-45"/>
     <use x="400" xlink:href="#SimHei-53"/>
     <use x="450" xlink:href="#SimHei-58"/>
     <use x="500" xlink:href="#SimHei-50"/>
     <use x="550" xlink:href="#SimHei-50"/>
     <use x="600" xlink:href="#SimHei-52"/>
     <use x="650" xlink:href="#SimHei-48"/>
     <use x="700" xlink:href="#SimHei-48"/>
     <use x="750" xlink:href="#SimHei-48"/>
     <use x="800" xlink:href="#SimHei-48"/>
    </g>
   </g>
   <g id="text_36">
    <!-- #o-3-#w-3:3280000 -->
    <g transform="translate(900.734674 235.028571)scale(0.1 -0.1)">
     <use xlink:href="#SimHei-35"/>
     <use x="50" xlink:href="#SimHei-111"/>
     <use x="100" xlink:href="#SimHei-45"/>
     <use x="150" xlink:href="#SimHei-51"/>
     <use x="200" xlink:href="#SimHei-45"/>
     <use x="250" xlink:href="#SimHei-35"/>
     <use x="300" xlink:href="#SimHei-119"/>
     <use x="350" xlink:href="#SimHei-45"/>
     <use x="400" xlink:href="#SimHei-51"/>
     <use x="450" xlink:href="#SimHei-58"/>
     <use x="500" xlink:href="#SimHei-51"/>
     <use x="550" xlink:href="#SimHei-50"/>
     <use x="600" xlink:href="#SimHei-56"/>
     <use x="650" xlink:href="#SimHei-48"/>
     <use x="700" xlink:href="#SimHei-48"/>
     <use x="750" xlink:href="#SimHei-48"/>
     <use x="800" xlink:href="#SimHei-48"/>
    </g>
   </g>
   <g id="text_37">
    <!-- #o-2-#w-4:290000 -->
    <g transform="translate(162 183.6)scale(0.1 -0.1)">
     <use xlink:href="#SimHei-35"/>
     <use x="50" xlink:href="#SimHei-111"/>
     <use x="100" xlink:href="#SimHei-45"/>
     <use x="150" xlink:href="#SimHei-50"/>
     <use x="200" xlink:href="#SimHei-45"/>
     <use x="250" xlink:href="#SimHei-35"/>
     <use x="300" xlink:href="#SimHei-119"/>
     <use x="350" xlink:href="#SimHei-45"/>
     <use x="400" xlink:href="#SimHei-52"/>
     <use x="450" xlink:href="#SimHei-58"/>
     <use x="500" xlink:href="#SimHei-50"/>
     <use x="550" xlink:href="#SimHei-57"/>
     <use x="600" xlink:href="#SimHei-48"/>
     <use x="650" xlink:href="#SimHei-48"/>
     <use x="700" xlink:href="#SimHei-48"/>
     <use x="750" xlink:href="#SimHei-48"/>
    </g>
   </g>
   <g id="text_38">
    <!-- #o-1-#w-2:4040020 -->
    <g transform="translate(1023.861855 543.6)scale(0.1 -0.1)">
     <use xlink:href="#SimHei-35"/>
     <use x="50" xlink:href="#SimHei-111"/>
     <use x="100" xlink:href="#SimHei-45"/>
     <use x="150" xlink:href="#SimHei-49"/>
     <use x="200" xlink:href="#SimHei-45"/>
     <use x="250" xlink:href="#SimHei-35"/>
     <use x="300" xlink:href="#SimHei-119"/>
     <use x="350" xlink:href="#SimHei-45"/>
     <use x="400" xlink:href="#SimHei-50"/>
     <use x="450" xlink:href="#SimHei-58"/>
     <use x="500" xlink:href="#SimHei-52"/>
     <use x="550" xlink:href="#SimHei-48"/>
     <use x="600" xlink:href="#SimHei-52"/>
     <use x="650" xlink:href="#SimHei-48"/>
     <use x="700" xlink:href="#SimHei-48"/>
     <use x="750" xlink:href="#SimHei-50"/>
     <use x="800" xlink:href="#SimHei-48"/>
    </g>
   </g>
   <g id="text_39">
    <!-- #o-2-#w-4:330000 -->
    <g transform="translate(230.664441 337.885714)scale(0.1 -0.1)">
     <use xlink:href="#SimHei-35"/>
     <use x="50" xlink:href="#SimHei-111"/>
     <use x="100" xlink:href="#SimHei-45"/>
     <use x="150" xlink:href="#SimHei-50"/>
     <use x="200" xlink:href="#SimHei-45"/>
     <use x="250" xlink:href="#SimHei-35"/>
     <use x="300" xlink:href="#SimHei-119"/>
     <use x="350" xlink:href="#SimHei-45"/>
     <use x="400" xlink:href="#SimHei-52"/>
     <use x="450" xlink:href="#SimHei-58"/>
     <use x="500" xlink:href="#SimHei-51"/>
     <use x="550" xlink:href="#SimHei-51"/>
     <use x="600" xlink:href="#SimHei-48"/>
     <use x="650" xlink:href="#SimHei-48"/>
     <use x="700" xlink:href="#SimHei-48"/>
     <use x="750" xlink:href="#SimHei-48"/>
    </g>
   </g>
   <g id="text_40">
    <!-- #o-3-#w-1:3960010 -->
    <g transform="translate(1023.859487 389.314286)scale(0.1 -0.1)">
     <use xlink:href="#SimHei-35"/>
     <use x="50" xlink:href="#SimHei-111"/>
     <use x="100" xlink:href="#SimHei-45"/>
     <use x="150" xlink:href="#SimHei-51"/>
     <use x="200" xlink:href="#SimHei-45"/>
     <use x="250" xlink:href="#SimHei-35"/>
     <use x="300" xlink:href="#SimHei-119"/>
     <use x="350" xlink:href="#SimHei-45"/>
     <use x="400" xlink:href="#SimHei-49"/>
     <use x="450" xlink:href="#SimHei-58"/>
     <use x="500" xlink:href="#SimHei-51"/>
     <use x="550" xlink:href="#SimHei-57"/>
     <use x="600" xlink:href="#SimHei-54"/>
     <use x="650" xlink:href="#SimHei-48"/>
     <use x="700" xlink:href="#SimHei-48"/>
     <use x="750" xlink:href="#SimHei-49"/>
     <use x="800" xlink:href="#SimHei-48"/>
    </g>
   </g>
   <g id="text_41">
    <!-- #o-3-#w-7:3640015 -->
    <g transform="translate(1012.495522 235.028571)scale(0.1 -0.1)">
     <use xlink:href="#SimHei-35"/>
     <use x="50" xlink:href="#SimHei-111"/>
     <use x="100" xlink:href="#SimHei-45"/>
     <use x="150" xlink:href="#SimHei-51"/>
     <use x="200" xlink:href="#SimHei-45"/>
     <use x="250" xlink:href="#SimHei-35"/>
     <use x="300" xlink:href="#SimHei-119"/>
     <use x="350" xlink:href="#SimHei-45"/>
     <use x="400" xlink:href="#SimHei-55"/>
     <use x="450" xlink:href="#SimHei-58"/>
     <use x="500" xlink:href="#SimHei-51"/>
     <use x="550" xlink:href="#SimHei-54"/>
     <use x="600" xlink:href="#SimHei-52"/>
     <use x="650" xlink:href="#SimHei-48"/>
     <use x="700" xlink:href="#SimHei-48"/>
     <use x="750" xlink:href="#SimHei-49"/>
     <use x="800" xlink:href="#SimHei-53"/>
    </g>
   </g>
   <g id="text_42">
    <!-- #o-1-#w-3:3800030 -->
    <g transform="translate(1023.864223 235.028571)scale(0.1 -0.1)">
     <use xlink:href="#SimHei-35"/>
     <use x="50" xlink:href="#SimHei-111"/>
     <use x="100" xlink:href="#SimHei-45"/>
     <use x="150" xlink:href="#SimHei-49"/>
     <use x="200" xlink:href="#SimHei-45"/>
     <use x="250" xlink:href="#SimHei-35"/>
     <use x="300" xlink:href="#SimHei-119"/>
     <use x="350" xlink:href="#SimHei-45"/>
     <use x="400" xlink:href="#SimHei-51"/>
     <use x="450" xlink:href="#SimHei-58"/>
     <use x="500" xlink:href="#SimHei-51"/>
     <use x="550" xlink:href="#SimHei-56"/>
     <use x="600" xlink:href="#SimHei-48"/>
     <use x="650" xlink:href="#SimHei-48"/>
     <use x="700" xlink:href="#SimHei-48"/>
     <use x="750" xlink:href="#SimHei-51"/>
     <use x="800" xlink:href="#SimHei-48"/>
    </g>
   </g>
   <g id="text_43">
    <!-- 调度甘特图 -->
    <g transform="translate(619.2 80.4)scale(0.18 -0.18)">
     <defs>
      <path d="M 92.96875 3.125 
Q 93.359375 -4.6875 89.0625 -6.828125 
Q 84.765625 -8.984375 76.5625 -10.15625 
Q 75.390625 -5.46875 73.4375 -0.78125 
Q 81.25 -1.171875 83.390625 0 
Q 85.546875 1.171875 85.9375 4.6875 
L 85.9375 70.703125 
L 48.046875 70.703125 
L 48.046875 35.546875 
Q 48.046875 19.140625 45.3125 9.5625 
Q 42.578125 0 35.546875 -10.15625 
Q 33.203125 -7.03125 28.515625 -4.6875 
Q 33.59375 1.171875 36.125 6.828125 
Q 38.671875 12.5 39.84375 18.9375 
Q 41.015625 25.390625 41.015625 45.703125 
Q 41.015625 66.40625 40.625 76.5625 
L 93.359375 76.5625 
Q 92.96875 70.703125 92.96875 60.9375 
z
M 80.078125 28.515625 
Q 79.6875 23.046875 79.6875 18.359375 
Q 79.6875 13.671875 80.078125 6.640625 
L 53.515625 6.640625 
Q 53.90625 13.671875 53.90625 18.359375 
Q 53.90625 23.046875 53.515625 28.515625 
L 80.078125 28.515625 
z
M 33.203125 25 
Q 34.765625 21.484375 37.5 18.75 
Q 32.421875 13.671875 29.296875 10.15625 
Q 26.171875 6.640625 20.703125 0.78125 
Q 17.96875 3.90625 15.625 6.25 
Q 18.359375 9.375 18.359375 12.890625 
L 18.359375 44.140625 
L 14.84375 44.140625 
Q 12.109375 44.140625 4.6875 43.75 
L 4.6875 50.78125 
Q 12.109375 50.390625 14.84375 50.390625 
L 25.78125 50.390625 
Q 25.390625 43.359375 25.390625 34.765625 
L 25.390625 16.40625 
Q 27.34375 17.96875 33.203125 25 
z
M 63.28125 57.421875 
Q 63.28125 62.109375 62.890625 67.1875 
L 70.3125 67.1875 
Q 69.921875 62.5 69.921875 57.421875 
Q 74.21875 57.421875 80.078125 57.8125 
L 80.078125 51.171875 
Q 74.21875 51.5625 69.921875 51.5625 
L 69.921875 41.796875 
Q 76.953125 41.796875 81.640625 42.1875 
L 81.640625 35.15625 
Q 75.390625 35.546875 67.1875 35.546875 
Q 58.984375 35.546875 52.34375 35.15625 
L 52.34375 42.1875 
Q 58.984375 41.796875 63.28125 41.796875 
L 63.28125 51.5625 
Q 58.203125 51.5625 52.734375 51.171875 
L 52.734375 57.8125 
Q 58.59375 57.421875 63.28125 57.421875 
z
M 73.046875 12.109375 
L 73.046875 23.046875 
L 60.546875 23.046875 
L 60.546875 12.109375 
z
M 19.53125 78.515625 
Q 23.828125 73.4375 30.859375 64.0625 
Q 27.34375 62.109375 24.609375 58.984375 
Q 16.796875 70.703125 13.671875 73.828125 
Q 16.796875 75.78125 19.53125 78.515625 
z
" id="SimHei-35843"/>
      <path d="M 27.34375 26.171875 
Q 38.28125 25.78125 44.921875 25.78125 
L 81.25 25.78125 
Q 77.734375 19.53125 72.65625 13.28125 
Q 67.578125 7.03125 62.890625 3.125 
Q 67.96875 0.78125 77.34375 -0.78125 
Q 86.71875 -2.34375 95.3125 -2.34375 
Q 92.96875 -4.6875 91.015625 -10.15625 
Q 79.6875 -8.59375 71.09375 -6.4375 
Q 62.5 -4.296875 56.640625 -1.5625 
Q 48.4375 -5.078125 40.421875 -7.21875 
Q 32.421875 -9.375 23.828125 -10.546875 
Q 22.65625 -7.421875 19.140625 -3.90625 
Q 26.171875 -3.90625 35.15625 -1.953125 
Q 44.140625 0 50.78125 3.125 
Q 44.140625 8.59375 37.5 19.921875 
L 27.34375 19.53125 
z
M 46.484375 79.296875 
Q 50.78125 80.46875 54.296875 82.03125 
Q 56.640625 77.734375 58.984375 70.703125 
L 73.4375 70.703125 
Q 77.734375 70.703125 89.0625 71.09375 
L 89.0625 64.0625 
Q 78.125 64.453125 72.65625 64.453125 
L 21.484375 64.453125 
Q 21.484375 46.875 21.09375 36.125 
Q 20.703125 25.390625 18.9375 14.84375 
Q 17.1875 4.296875 11.328125 -8.203125 
Q 7.8125 -5.859375 3.90625 -4.6875 
Q 10.15625 6.25 11.90625 16.796875 
Q 13.671875 27.34375 13.859375 43.75 
Q 14.0625 60.15625 13.671875 70.703125 
L 50 70.703125 
Q 48.4375 75.78125 46.484375 79.296875 
z
M 38.671875 51.5625 
Q 38.671875 57.8125 38.28125 61.328125 
L 46.484375 61.328125 
Q 46.09375 58.203125 46.09375 51.5625 
L 67.1875 51.5625 
Q 67.1875 57.8125 66.796875 61.71875 
L 75 61.71875 
Q 74.609375 57.03125 74.609375 51.5625 
Q 83.203125 51.5625 89.453125 51.953125 
L 89.453125 45.3125 
Q 83.59375 45.703125 74.609375 45.703125 
Q 74.609375 35.15625 75 30.46875 
L 38.28125 30.46875 
Q 38.671875 36.71875 38.671875 45.703125 
Q 33.984375 45.703125 25 45.3125 
L 25 51.953125 
Q 33.984375 51.5625 38.671875 51.5625 
z
M 67.1875 36.71875 
L 67.1875 45.703125 
L 46.09375 45.703125 
L 46.09375 36.71875 
z
M 44.921875 19.921875 
Q 50 12.109375 57.03125 6.640625 
Q 62.890625 10.9375 69.140625 19.921875 
L 45.3125 19.921875 
z
" id="SimHei-24230"/>
      <path d="M 24.21875 58.59375 
L 24.21875 68.75 
Q 24.21875 73.046875 23.828125 78.90625 
L 32.421875 78.90625 
Q 32.03125 73.828125 32.03125 68.75 
L 32.03125 58.59375 
L 68.75 58.59375 
L 68.75 68.75 
Q 68.75 74.609375 68.359375 79.296875 
L 76.953125 79.296875 
Q 76.5625 74.609375 76.5625 68.75 
L 76.5625 58.59375 
L 83.59375 58.59375 
Q 90.234375 58.59375 96.484375 58.984375 
L 96.484375 51.5625 
Q 90.625 51.953125 83.59375 51.953125 
L 76.5625 51.953125 
L 76.5625 8.203125 
Q 76.5625 -0.78125 76.953125 -8.59375 
L 68.75 -8.59375 
L 68.75 0 
L 32.03125 0 
L 32.03125 -8.203125 
L 23.828125 -8.203125 
Q 24.21875 0 24.21875 10.546875 
L 24.21875 51.953125 
L 15.625 51.953125 
Q 8.984375 51.953125 3.90625 51.5625 
L 3.90625 58.984375 
Q 9.375 58.59375 15.625 58.59375 
z
M 68.75 6.640625 
L 68.75 26.953125 
L 32.03125 26.953125 
L 32.03125 6.640625 
z
M 68.75 33.59375 
L 68.75 51.953125 
L 32.03125 51.953125 
L 32.03125 33.59375 
z
" id="SimHei-29976"/>
      <path d="M 63.28125 49.21875 
L 63.28125 63.28125 
L 57.421875 63.28125 
Q 51.171875 63.28125 46.484375 62.890625 
L 46.484375 69.921875 
Q 50.78125 69.53125 57.421875 69.53125 
L 63.28125 69.53125 
Q 63.28125 77.34375 62.5 81.25 
L 70.703125 81.25 
Q 70.3125 77.34375 70.3125 69.53125 
L 79.296875 69.53125 
Q 85.15625 69.53125 90.625 69.921875 
L 90.625 62.890625 
Q 86.71875 63.28125 79.296875 63.28125 
L 70.3125 63.28125 
L 70.3125 49.21875 
L 85.15625 49.21875 
Q 91.015625 49.21875 96.09375 49.609375 
L 96.09375 42.578125 
Q 91.40625 42.96875 85.9375 42.96875 
L 82.421875 42.96875 
L 82.421875 31.25 
Q 91.015625 31.25 95.3125 31.640625 
L 95.3125 24.21875 
Q 90.625 24.609375 82.421875 24.609375 
L 82.421875 -1.171875 
Q 82.03125 -5.859375 78.90625 -7.609375 
Q 75.78125 -9.375 66.796875 -10.546875 
Q 66.015625 -5.859375 63.671875 -1.5625 
Q 70.703125 -1.953125 73.046875 -1.5625 
Q 75.390625 -1.171875 75.390625 2.34375 
L 75.390625 24.609375 
L 56.25 24.609375 
Q 49.609375 24.609375 44.53125 24.21875 
L 44.53125 31.640625 
Q 48.828125 31.25 56.25 31.25 
L 75.390625 31.25 
L 75.390625 42.96875 
L 55.859375 42.96875 
Q 48.828125 42.96875 43.359375 42.578125 
L 43.359375 49.609375 
Q 48.828125 49.21875 55.46875 49.21875 
z
M 17.96875 66.796875 
Q 16.40625 64.453125 14.84375 56.25 
L 23.4375 56.25 
L 23.4375 69.140625 
Q 23.4375 75 23.046875 81.25 
L 31.25 81.25 
Q 30.46875 75.390625 30.46875 69.140625 
L 30.46875 56.25 
Q 35.9375 56.25 40.625 56.640625 
L 40.625 49.609375 
Q 36.328125 50 30.46875 50 
L 30.46875 32.421875 
Q 35.546875 34.375 40.234375 36.328125 
Q 40.625 33.203125 41.40625 29.6875 
Q 37.109375 28.125 30.46875 25.390625 
L 30.46875 3.515625 
Q 30.46875 -2.734375 30.859375 -10.15625 
L 23.046875 -10.15625 
Q 23.4375 -3.125 23.4375 3.515625 
L 23.4375 22.65625 
Q 13.28125 18.75 8.59375 16.015625 
Q 7.03125 19.921875 4.296875 24.21875 
Q 9.375 24.609375 23.4375 30.078125 
L 23.4375 50 
L 13.28125 50 
Q 11.71875 43.359375 10.546875 38.28125 
Q 6.640625 39.84375 3.515625 40.625 
Q 5.46875 46.09375 7.21875 54.484375 
Q 8.984375 62.890625 9.375 68.75 
Q 14.0625 67.578125 17.96875 66.796875 
z
M 56.25 18.75 
Q 59.375 11.71875 62.109375 5.078125 
Q 58.59375 4.296875 54.6875 2.34375 
Q 51.953125 10.546875 48.828125 16.015625 
Q 52.734375 17.1875 56.25 18.75 
z
" id="SimHei-29305"/>
      <path d="M 90.625 77.734375 
Q 90.234375 67.96875 90.234375 56.25 
L 90.234375 14.453125 
Q 90.234375 2.34375 90.625 -9.375 
L 82.8125 -9.375 
L 82.8125 -4.296875 
L 17.578125 -4.296875 
L 17.578125 -10.15625 
L 9.765625 -10.15625 
Q 10.15625 1.953125 10.15625 14.84375 
L 10.15625 56.25 
Q 10.15625 67.578125 9.765625 77.734375 
L 90.625 77.734375 
z
M 82.8125 2.34375 
L 82.8125 71.484375 
L 17.578125 71.484375 
L 17.578125 2.34375 
z
M 50.390625 66.40625 
Q 48.046875 64.0625 46.09375 61.328125 
L 72.265625 61.328125 
Q 70.703125 57.8125 67.1875 52.734375 
Q 63.671875 47.65625 56.25 40.625 
Q 67.96875 34.765625 79.296875 33.59375 
Q 76.5625 30.078125 74.609375 26.171875 
Q 60.15625 30.46875 50.390625 36.71875 
Q 39.0625 29.296875 26.171875 25.78125 
Q 25 29.296875 21.875 32.421875 
Q 34.375 34.375 44.921875 40.625 
Q 39.453125 45.703125 37.109375 49.21875 
Q 33.59375 45.3125 29.6875 41.40625 
Q 26.953125 44.53125 23.828125 46.09375 
Q 30.46875 51.5625 35.15625 58.390625 
Q 39.84375 65.234375 41.796875 69.921875 
Q 45.703125 67.96875 50.390625 66.40625 
z
M 38.28125 19.921875 
Q 55.46875 14.84375 64.0625 11.328125 
Q 62.109375 8.203125 60.15625 4.6875 
Q 44.140625 11.328125 35.546875 13.28125 
Q 37.109375 16.40625 38.28125 19.921875 
z
M 45.703125 32.03125 
Q 58.984375 26.5625 63.671875 25 
Q 61.71875 21.875 60.15625 17.96875 
Q 46.875 24.21875 42.1875 25.78125 
Q 44.140625 28.515625 45.703125 32.03125 
z
M 41.015625 53.90625 
Q 46.875 47.265625 51.171875 44.53125 
Q 56.25 48.4375 60.546875 55.078125 
L 41.796875 55.078125 
L 41.015625 53.90625 
z
" id="SimHei-22270"/>
     </defs>
     <use xlink:href="#SimHei-35843"/>
     <use x="100" xlink:href="#SimHei-24230"/>
     <use x="200" xlink:href="#SimHei-29976"/>
     <use x="300" xlink:href="#SimHei-29305"/>
     <use x="400" xlink:href="#SimHei-22270"/>
    </g>
   </g>
   <g id="legend_1">
    <g id="patch_27">
     <path d="M 1107.4 187.15 
L 1159.4 187.15 
Q 1161.4 187.15 1161.4 185.15 
L 1161.4 93.4 
Q 1161.4 91.4 1159.4 91.4 
L 1107.4 91.4 
Q 1105.4 91.4 1105.4 93.4 
L 1105.4 185.15 
Q 1105.4 187.15 1107.4 187.15 
z
" style="fill:#ffffff;opacity:0.8;stroke:#cccccc;stroke-linejoin:miter;"/>
    </g>
    <g id="patch_28">
     <path d="M 1109.4 102.4 
L 1129.4 102.4 
L 1129.4 95.4 
L 1109.4 95.4 
z
" style="fill:#aec7e8;stroke:#000000;stroke-linejoin:miter;"/>
    </g>
    <g id="text_44">
     <!-- #w-3 -->
     <g transform="translate(1137.4 102.4)scale(0.1 -0.1)">
      <use xlink:href="#SimHei-35"/>
      <use x="50" xlink:href="#SimHei-119"/>
      <use x="100" xlink:href="#SimHei-45"/>
      <use x="150" xlink:href="#SimHei-51"/>
     </g>
    </g>
    <g id="patch_29">
     <path d="M 1109.4 115.65 
L 1129.4 115.65 
L 1129.4 108.65 
L 1109.4 108.65 
z
" style="fill:#2ca02c;stroke:#000000;stroke-linejoin:miter;"/>
    </g>
    <g id="text_45">
     <!-- #w-2 -->
     <g transform="translate(1137.4 115.65)scale(0.1 -0.1)">
      <use xlink:href="#SimHei-35"/>
      <use x="50" xlink:href="#SimHei-119"/>
      <use x="100" xlink:href="#SimHei-45"/>
      <use x="150" xlink:href="#SimHei-50"/>
     </g>
    </g>
    <g id="patch_30">
     <path d="M 1109.4 128.9 
L 1129.4 128.9 
L 1129.4 121.9 
L 1109.4 121.9 
z
" style="fill:#ffbb78;stroke:#000000;stroke-linejoin:miter;"/>
    </g>
    <g id="text_46">
     <!-- #w-1 -->
     <g transform="translate(1137.4 128.9)scale(0.1 -0.1)">
      <use xlink:href="#SimHei-35"/>
      <use x="50" xlink:href="#SimHei-119"/>
      <use x="100" xlink:href="#SimHei-45"/>
      <use x="150" xlink:href="#SimHei-49"/>
     </g>
    </g>
    <g id="patch_31">
     <path d="M 1109.4 142.15 
L 1129.4 142.15 
L 1129.4 135.15 
L 1109.4 135.15 
z
" style="fill:#d62728;stroke:#000000;stroke-linejoin:miter;"/>
    </g>
    <g id="text_47">
     <!-- #w-6 -->
     <g transform="translate(1137.4 142.15)scale(0.1 -0.1)">
      <use xlink:href="#SimHei-35"/>
      <use x="50" xlink:href="#SimHei-119"/>
      <use x="100" xlink:href="#SimHei-45"/>
      <use x="150" xlink:href="#SimHei-54"/>
     </g>
    </g>
    <g id="patch_32">
     <path d="M 1109.4 155.4 
L 1129.4 155.4 
L 1129.4 148.4 
L 1109.4 148.4 
z
" style="fill:#ff7f0e;stroke:#000000;stroke-linejoin:miter;"/>
    </g>
    <g id="text_48">
     <!-- #w-5 -->
     <g transform="translate(1137.4 155.4)scale(0.1 -0.1)">
      <use xlink:href="#SimHei-35"/>
      <use x="50" xlink:href="#SimHei-119"/>
      <use x="100" xlink:href="#SimHei-45"/>
      <use x="150" xlink:href="#SimHei-53"/>
     </g>
    </g>
    <g id="patch_33">
     <path d="M 1109.4 168.65 
L 1129.4 168.65 
L 1129.4 161.65 
L 1109.4 161.65 
z
" style="fill:#1f77b4;stroke:#000000;stroke-linejoin:miter;"/>
    </g>
    <g id="text_49">
     <!-- #w-7 -->
     <g transform="translate(1137.4 168.65)scale(0.1 -0.1)">
      <use xlink:href="#SimHei-35"/>
      <use x="50" xlink:href="#SimHei-119"/>
      <use x="100" xlink:href="#SimHei-45"/>
      <use x="150" xlink:href="#SimHei-55"/>
     </g>
    </g>
    <g id="patch_34">
     <path d="M 1109.4 181.9 
L 1129.4 181.9 
L 1129.4 174.9 
L 1109.4 174.9 
z
" style="fill:#98df8a;stroke:#000000;stroke-linejoin:miter;"/>
    </g>
    <g id="text_50">
     <!-- #w-4 -->
     <g transform="translate(1137.4 181.9)scale(0.1 -0.1)">
      <use xlink:href="#SimHei-35"/>
      <use x="50" xlink:href="#SimHei-119"/>
      <use x="100" xlink:href="#SimHei-45"/>
      <use x="150" xlink:href="#SimHei-52"/>
     </g>
    </g>
   </g>
  </g>
 </g>
 <defs>
  <clipPath id="p51b4be7dcf">
   <rect height="554.4" width="1004.4" x="162" y="86.4"/>
  </clipPath>
 </defs>
</svg>
